 http://i1231.photobucket.com/albums/ee513/demonlord4000/Uploading/Uploading%20Description%20Pictures/miRaGeBanner.jpg

The Walking Dead - Nebraska - S02E08

Capped & encoded by:
r3mnants
 
http://sceneunderground.org/static/0cfbe45ae46cb86437841d89e16e163a.png 
http://sceneunderground.org/static/12690427c0b2bcb5e2cf3fd058901ce3.png

Online Info:
IMDB: http://www.imdb.com/title/tt1520211
Aired: Feb. 12 2012
Rating: TV-14
Plot: Rick and the others try to restore order in the aftermath a 
terrible discovery. When Hershel takes up an old habit and disappears, Rick and Glenn must follow him into town.

Format                                   : MPEG-4
Format profile                           : Base Media
Codec ID                                 : isom
File size                                : 534 MiB
Duration                                 : 42mn 40s
Overall bit rate mode                    : Variable
Overall bit rate                         : 1748 Kbps

Video
ID                                       : 1
Format                                   : AVC
Format/Info                              : Advanced Video Codec
Format profile                           : High@L4.0
Format settings, CABAC                   : Yes
Format settings, ReFrames                : 3 frames
Codec ID                                 : avc1
Codec ID/Info                            : Advanced Video Coding
Duration                                 : 42mn 40s
Bit rate mode                            : Variable
Bit rate                                 : 1616 Kbps
Maximum bit rate                         : 25.0 Mbps
Width                                    : 1280 pixels
Height                                   : 720 pixels
Display aspect ratio                     : 16:9
Frame rate mode                          : Constant
Frame rate                               : 29.970 fps
Color space                              : YUV
Chroma subsampling                       : 4:2:0
Bit depth                                : 8 bits
Scan type                                : Progressive
Bits/(Pixel*Frame)                       : 0.059
Stream size                              : 493 MiB (92%)
Writing library                          : x264 core 120 r2120 0c7dab9

Audio
ID                                       : 2
Format                                   : AAC
Format/Info                              : Advanced Audio Codec
Format profile                           : LC
Codec ID                                 : 40
Duration                                 : 42mn 40s
Bit rate mode                            : Variable
Bit rate                                 : 128 Kbps
Maximum bit rate                         : 180 Kbps
Channel(s)                               : 2 channels
Channel positions                        : Front: L R
Sampling rate                            : 48.0 KHz
Compression mode                         : Lossy
Stream size                              : 39.1 MiB (7%)

Greetz:
Thanks to SiniSteR, 26k, HDscene, BTVRG, Noir, and everyone else we respect

Special shout out to everyone at the underground